<svg width="20" height="20" viewBox="0 0 20 20" fill="none" xmlns="http://www.w3.org/2000/svg">
<path fill-rule="evenodd" clip-rule="evenodd" d="M14.2553 12.8233C14.4619 12.4121 14.9628 12.2461 15.3741 12.4527C16.7361 13.1369 17.8874 14.2262 18.7207 15.5685C18.8469 15.7718 19.0307 16.0434 19.0877 16.4114C19.1488 16.8054 19.0419 17.1821 18.8825 17.4686C18.7232 17.7551 18.4595 18.0447 18.0925 18.2006C17.7436 18.3488 17.3641 18.3333 17.0833 18.3333C16.6231 18.3333 16.25 17.9602 16.25 17.5C16.25 17.0398 16.6231 16.6667 17.0833 16.6667C17.2627 16.6667 17.357 16.6661 17.4242 16.6615L17.426 16.6585C17.4419 16.6298 17.3209 16.4736 17.3047 16.4475C16.6194 15.3437 15.6904 14.4768 14.6259 13.942C14.2147 13.7355 14.0487 13.2346 14.2553 12.8233Z" fill="white" fill-opacity="0.5"/>
<path fill-rule="evenodd" clip-rule="evenodd" d="M12.5871 2.51893C12.7919 2.10678 13.292 1.93871 13.7042 2.14353C15.2113 2.89251 16.25 4.44919 16.25 6.24999C16.25 8.05079 15.2113 9.60747 13.7042 10.3565C13.292 10.5613 12.7919 10.3932 12.5871 9.98105C12.3823 9.5689 12.5503 9.06875 12.9625 8.86393C13.9249 8.38566 14.5833 7.39396 14.5833 6.24999C14.5833 5.10602 13.9249 4.11432 12.9625 3.63605C12.5503 3.43123 12.3823 2.93108 12.5871 2.51893Z" fill="white" fill-opacity="0.5"/>
<path fill-rule="evenodd" clip-rule="evenodd" d="M3.33333 6.24999C3.33333 3.71868 5.38536 1.66666 7.91667 1.66666C10.448 1.66666 12.5 3.71868 12.5 6.24999C12.5 8.7813 10.448 10.8333 7.91667 10.8333C5.38536 10.8333 3.33333 8.7813 3.33333 6.24999Z" fill="white" fill-opacity="0.5"/>
<path fill-rule="evenodd" clip-rule="evenodd" d="M7.91667 11.6667C10.5802 11.6667 12.9613 13.1701 14.4143 15.3501C14.5423 15.5421 14.6788 15.747 14.7742 15.9416C14.8891 16.1759 14.9716 16.4451 14.9523 16.7665C14.9369 17.0229 14.8519 17.2607 14.7508 17.4496C14.6496 17.6384 14.4988 17.841 14.294 17.996C14.0195 18.2035 13.7238 18.2762 13.4624 18.3067C13.2322 18.3334 12.9596 18.3334 12.6849 18.3333C9.50732 18.3327 6.32724 18.3327 3.14839 18.3333C2.87377 18.3334 2.60115 18.3334 2.37096 18.3067C2.10954 18.2762 1.81379 18.2035 1.53937 17.996C1.33451 17.841 1.1837 17.6384 1.08258 17.4496C0.981458 17.2607 0.896415 17.0229 0.881026 16.7665C0.861731 16.4451 0.944231 16.1759 1.0591 15.9416C1.15454 15.747 1.29105 15.5421 1.41906 15.3501C2.87205 13.1701 5.25314 11.6667 7.91667 11.6667Z" fill="white" fill-opacity="0.5"/>
</svg>
